<svg width="240" height="340" viewBox="0 0 240 340" fill="none" xmlns="http://www.w3.org/2000/svg">
<path d="M240 120C240 230.59 120 340 120 340C120 340 0 230.59 0 120C0 53.73 53.73 0 120 0C186.27 0 240 53.73 240 120Z" fill="url(#paint0_linear_1409_2800)"/>
<path d="M120 200C164.183 200 200 164.183 200 120C200 75.8172 164.183 40 120 40C75.8172 40 40 75.8172 40 120C40 164.183 75.8172 200 120 200Z" fill="white"/>
<path d="M168.22 102.02H152.5C152.39 101.6 152.24 101.18 152.01 100.78L135.86 72.7999C134.46 70.3699 131.36 69.5399 128.93 70.9399L127.55 71.7299C125.12 73.1299 124.29 76.2299 125.69 78.6599L139.17 102.01H100.81L114.29 78.6599C115.69 76.2299 114.86 73.1299 112.43 71.7299L111.05 70.9399C108.62 69.5399 105.52 70.3699 104.12 72.7999L87.97 100.78C87.74 101.18 87.59 101.59 87.48 102.02H71.76C68 102.02 64.96 105.07 64.96 108.82C64.96 112.57 67.82 115.42 71.42 115.61L81.13 156.88C82.07 160.88 85.64 163.7 89.74 163.7H150.23C154.33 163.7 157.9 160.88 158.84 156.88L168.55 115.61C172.14 115.43 175.01 112.46 175.01 108.82C175.01 105.18 171.96 102.02 168.21 102.02H168.22ZM104.07 152.94H94.61L88.71 118.41H104.07V152.94ZM127.09 152.94H112.9V118.41H127.09V152.94ZM145.39 152.94H135.93V118.41H151.29L145.39 152.94Z" fill="#33B577"/>
<defs>
<linearGradient id="paint0_linear_1409_2800" x1="120" y1="0" x2="120" y2="340" gradientUnits="userSpaceOnUse">
<stop offset="0.5" stop-color="#33B577"/>
<stop offset="1" stop-color="#258155"/>
</linearGradient>
</defs>
</svg>
