<svg width="240" height="341" viewBox="0 0 240 341" fill="none" xmlns="http://www.w3.org/2000/svg">
<path d="M240 120.48C240 231.07 120 340.48 120 340.48C120 340.48 0 231.07 0 120.48C0 54.2104 53.73 0.480469 120 0.480469C186.27 0.480469 240 54.2104 240 120.48Z" fill="url(#paint0_linear_1409_2809)"/>
<path d="M120 200.48C164.183 200.48 200 164.663 200 120.48C200 76.2977 164.183 40.4805 120 40.4805C75.8172 40.4805 40 76.2977 40 120.48C40 164.663 75.8172 200.48 120 200.48Z" fill="white"/>
<path d="M170.48 148.839C170.48 135.179 159.41 124.109 145.75 124.109C132.09 124.109 121.02 135.179 121.02 148.839C121.02 162.499 132.09 173.569 145.75 173.569C159.41 173.569 170.48 162.499 170.48 148.839ZM144.81 149.089C144.32 149.309 143.81 149.409 143.31 149.409C141.89 149.409 140.54 148.589 139.93 147.209C139.1 145.339 139.94 143.159 141.81 142.329C142.3 142.109 142.81 142.009 143.31 142.009C144.73 142.009 146.08 142.829 146.69 144.209C147.52 146.079 146.68 148.259 144.81 149.089ZM155.9 155.869C155.41 156.089 154.9 156.189 154.4 156.189C152.98 156.189 151.63 155.369 151.02 153.989C150.19 152.119 151.03 149.939 152.9 149.109C153.39 148.889 153.9 148.789 154.4 148.789C155.82 148.789 157.17 149.609 157.78 150.989C158.61 152.859 157.77 155.039 155.9 155.869ZM157.2 143.049C156.71 143.269 156.2 143.369 155.7 143.369C154.28 143.369 152.93 142.549 152.32 141.169C151.49 139.309 152.33 137.119 154.2 136.289C154.69 136.069 155.2 135.969 155.7 135.969C157.12 135.969 158.47 136.789 159.08 138.169C159.91 140.039 159.07 142.219 157.2 143.049Z" fill="#7959AD"/>
<path d="M127.67 74.1095C126.01 69.2195 121.55 66.7695 117.09 66.7695C112.63 66.7695 108.17 69.2095 106.51 74.1095C105.23 77.8795 106.57 81.5995 107.9 85.1295C108.8 87.5295 109.48 90.0495 109.8 92.5895H124.39C124.71 90.0495 125.39 87.5295 126.29 85.1295C127.63 81.5895 128.96 77.8795 127.68 74.1095H127.67Z" fill="#7959AD"/>
<path d="M85.3001 100.269H98.3901C98.6701 97.9888 99.29 95.7288 100.09 93.5688C101.29 90.3988 102.49 87.0588 101.34 83.6788C98.36 74.9088 85.34 74.8888 82.35 83.6788C81.2 87.0588 82.4 90.3988 83.6 93.5688C84.41 95.7188 85.0201 97.9888 85.3001 100.269Z" fill="#7959AD"/>
<path d="M98.7399 111.55C99.0399 110.99 99.3599 110.46 99.6899 109.93C98.8299 108.05 98.38 106.09 98.26 104.09H85.4499C85.3199 106.23 84.8299 108.34 83.8399 110.34C82.3299 113.38 80.01 115.91 78.41 118.9C69.78 134.93 78.7799 151.92 85.0899 167.36H98.62C99.71 164.7 100.87 161.99 102.02 159.25C95.79 144.25 90.07 127.65 98.75 111.55H98.7399Z" fill="#7959AD"/>
<path d="M135.32 122.27C134.7 119.28 133.66 116.3 132.07 113.36C130.28 110.03 127.69 107.21 126.02 103.82C124.85 101.45 124.31 98.9502 124.21 96.4102H109.97C109.87 98.9502 109.33 101.45 108.16 103.82C106.48 107.21 103.89 110.03 102.1 113.36C92.4799 131.22 102.51 150.16 109.55 167.36H124.06C119.79 162.37 117.21 155.9 117.21 148.84C117.21 136.78 124.73 126.45 135.33 122.28L135.32 122.27Z" fill="#7959AD"/>
<path d="M157.54 122.85C157.06 121.53 156.49 120.21 155.78 118.91C154.17 115.92 151.85 113.39 150.35 110.35C149.36 108.35 148.87 106.24 148.74 104.1H135.92C135.8 106.11 135.36 108.08 134.49 109.97C134.81 110.49 135.14 111 135.44 111.55C137.15 114.72 138.29 117.92 138.99 121.11C141.16 120.58 143.42 120.29 145.76 120.29C149.96 120.29 153.95 121.21 157.54 122.85Z" fill="#7959AD"/>
<path d="M135.78 100.269H148.87C149.15 97.9888 149.77 95.7288 150.58 93.5688C151.78 90.3988 152.97 87.0588 151.83 83.6788C148.85 74.9088 135.83 74.8888 132.84 83.6788C131.69 87.0588 132.89 90.3988 134.09 93.5688C134.9 95.7188 135.51 97.9888 135.79 100.269H135.78Z" fill="#7959AD"/>
<defs>
<linearGradient id="paint0_linear_1409_2809" x1="120" y1="0.480469" x2="120" y2="340.48" gradientUnits="userSpaceOnUse">
<stop offset="0.5" stop-color="#7959AD"/>
<stop offset="1" stop-color="#513B73"/>
</linearGradient>
</defs>
</svg>
