<svg width="240" height="340" viewBox="0 0 240 340" fill="none" xmlns="http://www.w3.org/2000/svg">
<path d="M240 120C240 230.59 120 340 120 340C120 340 0 230.59 0 120C0 53.73 53.73 0 120 0C186.27 0 240 53.73 240 120Z" fill="url(#paint0_linear_1409_2802)"/>
<path d="M120 200C164.183 200 200 164.183 200 120C200 75.8172 164.183 40 120 40C75.8172 40 40 75.8172 40 120C40 164.183 75.8172 200 120 200Z" fill="white"/>
<path fill-rule="evenodd" clip-rule="evenodd" d="M162.8 80.8702C156.05 76.9702 148.78 73.9702 141.6 71.9202C134.07 69.7702 126.62 68.6602 120 68.6602C113.38 68.6602 105.93 69.7702 98.4 71.9202C91.22 73.9702 83.94 76.9702 77.2 80.8702L76.36 81.3502C76.36 92.5102 76.37 103.68 76.39 114.84C76.6 135.93 84.45 150.37 93.7 160.07C102.94 169.76 113.58 174.72 119.41 176.92L120 177.14L120.59 176.92C126.42 174.73 137.06 169.77 146.3 160.07C155.56 150.36 163.41 135.93 163.62 114.84C163.62 103.68 163.64 92.5102 163.64 81.3502L162.8 80.8702ZM148.55 126.3H130.11V144.75H109.9V126.3H91.45V106.09H109.9V87.6402H130.11V106.09H148.55V126.3Z" fill="#DD4343"/>
<defs>
<linearGradient id="paint0_linear_1409_2802" x1="120" y1="0" x2="120" y2="340" gradientUnits="userSpaceOnUse">
<stop offset="0.5" stop-color="#DD4343"/>
<stop offset="1" stop-color="#9C2F2F"/>
</linearGradient>
</defs>
</svg>
