<svg width="240" height="341" viewBox="0 0 240 341" fill="none" xmlns="http://www.w3.org/2000/svg">
<path d="M240 120.48C240 231.07 120 340.48 120 340.48C120 340.48 0 231.07 0 120.48C0 54.2104 53.73 0.480469 120 0.480469C186.27 0.480469 240 54.2104 240 120.48Z" fill="url(#paint0_linear_1409_2808)"/>
<path d="M120 200.48C164.183 200.48 200 164.663 200 120.48C200 76.2977 164.183 40.4805 120 40.4805C75.8172 40.4805 40 76.2977 40 120.48C40 164.663 75.8172 200.48 120 200.48Z" fill="white"/>
<path d="M103.99 92.1392C110.16 92.1892 115.2 87.2392 115.26 81.0692C115.31 74.8992 110.36 69.8592 104.19 69.7992C98.0201 69.7492 92.9801 74.6992 92.9201 80.8692C92.8701 87.0392 97.8201 92.0792 103.99 92.1392Z" fill="#7959AD"/>
<path d="M115.16 125.799V104.189L115.69 104.049C122.65 102.259 128.97 98.1988 133.5 92.6188L137.96 87.1188C139.74 84.9188 139.4 81.6988 137.21 79.9288C135.02 78.1488 131.79 78.4888 130.02 80.6788L125.56 86.1788C122.41 90.0688 118.01 92.8989 113.16 94.1389L111.86 94.4688C109.94 94.9588 107.98 95.2189 105.98 95.2089H103.28C103.28 95.2089 103.24 95.2089 103.22 95.2089C99.85 95.2089 96.5001 95.7089 93.2801 96.7089C85.9901 98.9589 79.6201 103.669 75.3301 109.979L72.35 114.369C70.76 116.709 71.3701 119.889 73.7101 121.479C74.5901 122.079 75.5901 122.359 76.5801 122.359C78.2201 122.359 79.83 121.579 80.82 120.119L83.8 115.729C86.22 112.169 89.6 109.359 93.5 107.579V128.509L93.91 140.449C93.95 141.559 93.56 142.629 92.81 143.449L80.79 156.709C78.62 159.099 78.8 162.799 81.2 164.969C82.32 165.979 83.72 166.479 85.12 166.479C86.71 166.479 88.3 165.829 89.45 164.559L101.47 151.299C104.27 148.209 105.73 144.219 105.59 140.049L105.33 132.579L115.51 142.259C116.68 143.369 117.12 145.089 116.64 146.629L112.76 158.879C111.79 161.959 113.49 165.239 116.57 166.219C117.16 166.409 117.75 166.489 118.34 166.489C120.82 166.489 123.12 164.899 123.91 162.409L127.79 150.159C129.62 144.389 127.96 137.959 123.57 133.789L115.17 125.809L115.16 125.799Z" fill="#7959AD"/>
<path d="M172.05 93.3493C171.17 92.5793 170 92.2194 168.83 92.3694L144.62 95.5194C142.6 95.7794 141.07 97.5194 141.07 99.5594V120.289C140.42 120.149 139.74 120.059 139.03 120.059C134.4 120.059 130.78 123.119 130.78 127.029C130.78 130.939 134.4 133.999 139.03 133.999C143.66 133.999 147.28 130.939 147.28 127.029V106.549L167.2 103.959V116.889C166.55 116.749 165.87 116.659 165.16 116.659C160.53 116.659 156.91 119.719 156.91 123.629C156.91 127.539 160.53 130.599 165.16 130.599C169.79 130.599 173.41 127.539 173.41 123.629V96.4093C173.41 95.2393 172.91 94.1193 172.03 93.3493H172.05Z" fill="#7959AD"/>
<defs>
<linearGradient id="paint0_linear_1409_2808" x1="120" y1="0.480469" x2="120" y2="340.48" gradientUnits="userSpaceOnUse">
<stop offset="0.5" stop-color="#7959AD"/>
<stop offset="1" stop-color="#513B73"/>
</linearGradient>
</defs>
</svg>
