<svg width="240" height="341" viewBox="0 0 240 341" fill="none" xmlns="http://www.w3.org/2000/svg">
<path d="M240 120.48C240 231.07 120 340.48 120 340.48C120 340.48 0 231.07 0 120.48C0 54.2104 53.73 0.480469 120 0.480469C186.27 0.480469 240 54.2104 240 120.48Z" fill="url(#paint0_linear_1409_2810)"/>
<path d="M120 200.48C164.183 200.48 200 164.663 200 120.48C200 76.2977 164.183 40.4805 120 40.4805C75.8172 40.4805 40 76.2977 40 120.48C40 164.663 75.8172 200.48 120 200.48Z" fill="white"/>
<path d="M164.61 75.8604C163.25 74.5004 161.37 73.6504 159.3 73.6504H80.7C78.63 73.6504 76.75 74.5004 75.39 75.8604H75.38C74.02 77.2404 73.17 79.1104 73.17 81.1804V159.77C73.17 161.84 74.02 163.72 75.38 165.08H75.39C76.75 166.45 78.63 167.3 80.7 167.3H159.3C161.37 167.3 163.25 166.45 164.61 165.09H164.62C165.98 163.71 166.83 161.84 166.83 159.77V81.1804C166.83 79.1104 165.98 77.2304 164.62 75.8704H164.61V75.8604ZM79.08 81.1804C79.08 80.7304 79.26 80.3304 79.55 80.0304C79.84 79.7404 80.25 79.5604 80.7 79.5604H117.04V84.8704H108.77V90.7804H149.24C149.36 90.7804 149.47 90.8303 149.55 90.9103C149.63 90.9903 149.68 91.1003 149.68 91.2203V102.33H144.36V101.28C144.36 99.8504 143.78 98.5504 142.84 97.6104C141.89 96.6704 140.6 96.0904 139.18 96.0904H100.81C99.3801 96.0904 98.08 96.6704 97.14 97.6104C96.2 98.5504 95.62 99.8504 95.62 101.28V101.7H90.3101V91.2203C90.3101 91.1003 90.3599 90.9903 90.4399 90.9103C90.5199 90.8303 90.63 90.7804 90.75 90.7804H102.21V84.8704H90.75C89 84.8704 87.41 85.5904 86.26 86.7404C85.11 87.8904 84.39 89.4803 84.39 91.2303V117.51H79.08V81.1703V81.1804ZM99.16 161.39H80.7C80.25 161.39 79.85 161.21 79.55 160.92C79.26 160.63 79.08 160.22 79.08 159.77V123.43H84.39V129.52H90.3V107.63H95.61V139.66C95.61 141.08 96.2 142.38 97.14 143.32C98.08 144.26 99.3801 144.85 100.81 144.85H104.14V138.94H101.53V102.02H138.45V138.94H110.69V144.85H129.93V150.17H90.75C90.63 150.17 90.5199 150.12 90.4399 150.04C90.3599 149.96 90.3101 149.85 90.3101 149.73V136.08H84.4V149.73C84.4 151.48 85.12 153.07 86.27 154.22C87.42 155.37 89.01 156.09 90.76 156.09H99.16V161.4V161.39ZM160.92 159.78C160.92 160.23 160.74 160.63 160.45 160.93C160.16 161.22 159.75 161.4 159.3 161.4H105.08V156.09H149.24C150.99 156.09 152.58 155.37 153.74 154.22C154.89 153.07 155.61 151.48 155.61 149.73V142.99H160.92V159.79V159.78ZM160.92 137.07H155.61V123.76H149.7V149.73C149.7 149.85 149.65 149.96 149.57 150.04C149.49 150.12 149.38 150.17 149.26 150.17H135.87V144.85H139.21C140.63 144.85 141.92 144.27 142.87 143.33V143.32C143.81 142.38 144.39 141.08 144.39 139.66V108.26H149.71V117.21H155.62V91.2404C155.62 89.4904 154.9 87.9004 153.75 86.7504C152.6 85.6004 151.01 84.8804 149.25 84.8804H122.97V79.5704H159.31C159.76 79.5704 160.16 79.7503 160.46 80.0403C160.75 80.3303 160.93 80.7404 160.93 81.1904V137.08L160.92 137.07Z" fill="#7959AD"/>
<path d="M128.24 133.22L125.04 119.6C126.26 118.34 127.01 116.63 127.01 114.74C127.01 110.87 123.87 107.74 120.01 107.74C116.15 107.74 113.01 110.88 113.01 114.74C113.01 116.63 113.76 118.34 114.97 119.6L111.77 133.22H128.25H128.24Z" fill="#7959AD"/>
<defs>
<linearGradient id="paint0_linear_1409_2810" x1="120" y1="0.480469" x2="120" y2="340.48" gradientUnits="userSpaceOnUse">
<stop offset="0.5" stop-color="#7959AD"/>
<stop offset="1" stop-color="#513B73"/>
</linearGradient>
</defs>
</svg>
