<svg width="240" height="341" viewBox="0 0 240 341" fill="none" xmlns="http://www.w3.org/2000/svg">
<path d="M240 120.48C240 231.07 120 340.48 120 340.48C120 340.48 0 231.07 0 120.48C0 54.2104 53.73 0.480469 120 0.480469C186.27 0.480469 240 54.2104 240 120.48Z" fill="url(#paint0_linear_1409_2805)"/>
<path d="M120 200.48C164.183 200.48 200 164.663 200 120.48C200 76.2977 164.183 40.4805 120 40.4805C75.8172 40.4805 40 76.2977 40 120.48C40 164.663 75.8172 200.48 120 200.48Z" fill="white"/>
<path d="M91.38 91.1116C91.92 92.3516 92.67 93.4516 93.51 94.4016L94.16 95.0716L94.53 95.4416C94.7 95.6116 94.86 95.7716 95.04 95.9416L95.3 96.1816C95.38 96.2616 95.49 96.3516 95.5 96.3816C95.64 96.5516 95.8 96.7016 95.99 96.8416C96.15 97.0316 96.32 97.2216 96.52 97.4116C96.63 97.5916 96.81 97.7616 96.96 97.9416C97.01 98.0216 97.07 98.1116 97.14 98.2016L97.25 98.3416C97.25 98.3416 97.3 98.4316 97.33 98.4816C97.38 98.5816 97.43 98.6716 97.5 98.7816C97.58 98.8916 97.58 98.9916 97.63 99.1116C97.67 99.2216 97.73 99.3416 97.76 99.4616C97.78 99.5816 97.8 99.7016 97.83 99.8416C97.94 100.362 97.93 100.922 97.91 101.472C97.88 101.752 97.85 102.012 97.83 102.262C97.78 102.522 97.75 102.762 97.71 102.972C97.62 103.402 97.54 103.792 97.47 104.042C97.4 104.302 97.36 104.442 97.36 104.442C97.36 104.442 97.51 104.442 97.78 104.422C98.05 104.382 98.46 104.332 98.95 104.172C99.2 104.102 99.45 103.982 99.75 103.862C100.04 103.732 100.32 103.552 100.65 103.362C100.95 103.152 101.27 102.912 101.59 102.612C101.89 102.302 102.23 101.982 102.51 101.552C102.66 101.352 102.79 101.122 102.93 100.892C103.07 100.662 103.17 100.402 103.29 100.142C103.54 99.6216 103.68 99.0316 103.8 98.4016C103.83 98.2416 103.87 98.0816 103.88 97.9216C103.88 97.7616 103.89 97.6016 103.9 97.4416C103.91 97.1216 103.91 96.7816 103.9 96.4416C103.9 96.1016 103.82 95.7916 103.77 95.4616C103.71 95.1316 103.65 94.8016 103.57 94.4616C103.37 93.8516 103.13 93.2416 102.86 92.6216C102.52 92.0216 102.15 91.4116 101.75 90.8216C101.64 90.6516 101.57 90.5816 101.5 90.4816L101.28 90.2016C101.14 90.0116 100.98 89.8316 100.83 89.6616L100.6 89.3916L100.54 89.3216V89.3016L100.34 89.1016L100.32 89.0816L100.24 88.9916L99.9 88.6316C99.48 88.1516 99.11 87.7116 98.8 87.2816C98.49 86.8516 98.23 86.4516 97.99 86.0116C97.76 85.5716 97.56 85.0716 97.41 84.5216C97.27 83.9716 97.16 83.3516 97.13 82.7416C97.04 81.5116 97.12 80.2716 97.2 79.3616C97.25 78.9116 97.27 78.5216 97.3 78.2616C97.33 77.9916 97.35 77.8516 97.35 77.8516C97.35 77.8516 97.2 77.8716 96.93 77.9416C96.68 78.0216 96.27 78.1216 95.82 78.3416C94.91 78.7516 93.66 79.5116 92.51 80.9316C91.95 81.6416 91.4 82.5116 91.02 83.5816C90.63 84.6416 90.41 85.8816 90.45 87.2016C90.49 88.5216 90.81 89.8816 91.36 91.1116H91.38Z" fill="#E88F36"/>
<path d="M106.08 82.6706C106.63 83.9106 107.37 85.0106 108.21 85.9506L108.86 86.6206L109.23 86.9906C109.4 87.1606 109.56 87.3306 109.74 87.4906L110 87.7306C110.08 87.8106 110.19 87.9006 110.2 87.9306C110.34 88.1006 110.5 88.2506 110.69 88.3906C110.85 88.5806 111.02 88.7706 111.22 88.9606C111.33 89.1406 111.51 89.3106 111.66 89.4906C111.71 89.5706 111.77 89.6606 111.84 89.7506L111.95 89.8906C111.95 89.8906 112 89.9806 112.02 90.0306C112.07 90.1306 112.12 90.2206 112.19 90.3306C112.26 90.4406 112.26 90.5406 112.32 90.6506C112.36 90.7606 112.42 90.8806 112.45 91.0006C112.47 91.1206 112.49 91.2406 112.52 91.3806C112.63 91.9006 112.62 92.4606 112.6 93.0106C112.57 93.2906 112.54 93.5506 112.51 93.8006C112.46 94.0606 112.42 94.3006 112.39 94.5106C112.29 94.9406 112.22 95.3306 112.15 95.5806C112.08 95.8406 112.04 95.9806 112.04 95.9806C112.04 95.9806 112.19 95.9806 112.46 95.9606C112.72 95.9206 113.14 95.8706 113.63 95.7106C113.88 95.6406 114.14 95.5206 114.43 95.4006C114.72 95.2706 115 95.0906 115.33 94.9006C115.63 94.6906 115.96 94.4506 116.27 94.1506C116.57 93.8406 116.91 93.5206 117.19 93.0906C117.34 92.8906 117.47 92.6606 117.62 92.4306C117.76 92.2006 117.86 91.9406 117.98 91.6806C118.23 91.1606 118.37 90.5706 118.49 89.9406C118.52 89.7806 118.56 89.6206 118.57 89.4606C118.57 89.3006 118.58 89.1406 118.59 88.9806C118.6 88.6606 118.6 88.3206 118.59 87.9806C118.59 87.6406 118.51 87.3306 118.46 87.0006C118.4 86.6706 118.34 86.3306 118.26 86.0006C118.06 85.3906 117.82 84.7806 117.55 84.1606C117.22 83.5606 116.84 82.9506 116.44 82.3606C116.33 82.1906 116.26 82.1206 116.19 82.0206L115.97 81.7406C115.83 81.5606 115.67 81.3806 115.52 81.2006L115.29 80.9306L115.23 80.8606V80.8406L115.03 80.6406L115.01 80.6206L114.93 80.5306L114.59 80.1706C114.17 79.6906 113.8 79.2506 113.49 78.8206C113.18 78.3906 112.92 77.9906 112.68 77.5506C112.45 77.1106 112.25 76.6106 112.1 76.0606C111.96 75.5106 111.85 74.8906 111.82 74.2806C111.73 73.0506 111.81 71.8106 111.89 70.9006C111.94 70.4506 111.95 70.0506 111.99 69.8006C112.02 69.5306 112.04 69.3906 112.04 69.3906C112.04 69.3906 111.89 69.4106 111.63 69.4806C111.38 69.5606 110.97 69.6606 110.52 69.8806C109.6 70.3006 108.36 71.0506 107.21 72.4706C106.65 73.1806 106.1 74.0506 105.72 75.1106C105.34 76.1706 105.11 77.4106 105.15 78.7306C105.19 80.0406 105.51 81.4106 106.06 82.6406L106.08 82.6706Z" fill="#E88F36"/>
<path d="M125.51 91.11C126.06 92.35 126.8 93.4501 127.64 94.3901L128.29 95.0601L128.66 95.4301C128.83 95.6001 128.99 95.7701 129.17 95.9301L129.43 96.17C129.51 96.25 129.62 96.3401 129.63 96.3701C129.77 96.5401 129.93 96.6901 130.12 96.8301C130.28 97.0201 130.45 97.2101 130.65 97.4001C130.76 97.5801 130.94 97.7501 131.09 97.9301C131.14 98.0101 131.2 98.1001 131.27 98.1901L131.38 98.3301C131.38 98.3301 131.43 98.42 131.45 98.47C131.5 98.57 131.55 98.6601 131.62 98.7701C131.69 98.8801 131.69 98.9801 131.75 99.0901C131.79 99.2001 131.85 99.3201 131.88 99.4401C131.9 99.5601 131.92 99.6801 131.95 99.8201C132.06 100.34 132.05 100.9 132.03 101.45C132 101.73 131.97 101.99 131.94 102.24C131.89 102.5 131.85 102.74 131.82 102.95C131.72 103.38 131.65 103.77 131.58 104.02C131.51 104.28 131.47 104.42 131.47 104.42C131.47 104.42 131.62 104.42 131.89 104.4C132.15 104.36 132.57 104.31 133.06 104.15C133.31 104.08 133.57 103.96 133.86 103.84C134.15 103.71 134.43 103.53 134.76 103.34C135.06 103.13 135.39 102.89 135.7 102.59C136 102.28 136.34 101.96 136.62 101.53C136.77 101.33 136.9 101.1 137.05 100.87C137.19 100.64 137.29 100.38 137.41 100.12C137.66 99.6001 137.8 99.0101 137.92 98.3801C137.95 98.2201 137.99 98.0601 138 97.9001C138 97.7401 138.01 97.58 138.02 97.42C138.03 97.1 138.03 96.76 138.02 96.42C138.02 96.08 137.94 95.7701 137.89 95.4401C137.83 95.1101 137.77 94.7701 137.69 94.4401C137.49 93.8301 137.25 93.22 136.98 92.6C136.65 92 136.27 91.39 135.87 90.8C135.76 90.63 135.69 90.5601 135.62 90.4601L135.4 90.1801C135.26 90.0001 135.1 89.8201 134.95 89.6401L134.72 89.3701L134.66 89.3V89.2801L134.46 89.0801L134.44 89.0601L134.36 88.97L134.02 88.61C133.6 88.13 133.23 87.6901 132.92 87.2601C132.61 86.8301 132.35 86.4301 132.11 85.9901C131.88 85.5501 131.68 85.0501 131.53 84.5001C131.39 83.9501 131.28 83.33 131.25 82.72C131.16 81.49 131.24 80.2501 131.32 79.3401C131.37 78.8901 131.38 78.4901 131.42 78.2401C131.45 77.9701 131.47 77.8301 131.47 77.8301C131.47 77.8301 131.32 77.85 131.06 77.92C130.81 78 130.4 78.1001 129.95 78.3201C129.03 78.7401 127.79 79.49 126.64 80.91C126.08 81.62 125.53 82.4901 125.15 83.5601C124.77 84.6201 124.54 85.8601 124.58 87.1801C124.62 88.4901 124.94 89.8601 125.49 91.0901L125.51 91.11Z" fill="#E88F36"/>
<path d="M156.61 109.25C156.61 109.25 156.61 109.24 156.61 109.23H74.09C73.61 111.78 73.35 114.42 73.35 117.12C73.35 140.32 92.15 159.12 115.35 159.12C128.75 159.12 140.67 152.84 148.36 143.07C150.63 144.13 153.17 144.72 155.84 144.72C165.64 144.72 173.58 136.78 173.58 126.98C173.58 117.18 166.05 109.66 156.61 109.26V109.25ZM155.83 137.01C154.71 137.01 153.63 136.82 152.62 136.47C155.63 130.68 157.34 124.1 157.34 117.12C157.34 117.11 157.34 117.09 157.34 117.07C162.15 117.8 165.86 121.96 165.86 126.97C165.86 132.5 161.36 137 155.83 137V137.01Z" fill="#E88F36"/>
<defs>
<linearGradient id="paint0_linear_1409_2805" x1="120" y1="0.480469" x2="120" y2="340.48" gradientUnits="userSpaceOnUse">
<stop offset="0.5" stop-color="#E88F36"/>
<stop offset="1" stop-color="#A66627"/>
</linearGradient>
</defs>
</svg>
