<svg width="240" height="340" viewBox="0 0 240 340" fill="none" xmlns="http://www.w3.org/2000/svg">
<path d="M240 120C240 230.59 120 340 120 340C120 340 0 230.59 0 120C0 53.73 53.73 0 120 0C186.27 0 240 53.73 240 120Z" fill="url(#paint0_linear_1409_2799)"/>
<path d="M120 200C164.183 200 200 164.183 200 120C200 75.8172 164.183 40 120 40C75.8172 40 40 75.8172 40 120C40 164.183 75.8172 200 120 200Z" fill="white"/>
<path d="M70.92 96.7095V112.3C70.92 115.19 73.23 117.5 76.12 117.5V91.5195C73.23 91.5195 70.92 93.8295 70.92 96.7195" fill="#266EB5"/>
<path d="M163.88 91.5098V117.3C166.77 117.3 169.08 114.99 169.08 112.1V96.5098C169.08 93.8198 166.77 91.5098 163.88 91.5098Z" fill="#266EB5"/>
<path d="M143.29 70.9199H96.71C88.24 70.9199 81.31 77.8499 81.31 86.5099V148.49C81.31 152.34 83.43 155.61 86.51 157.34V161.38C86.51 165.61 89.97 169.08 94.21 169.08C98.45 169.08 101.91 165.62 101.91 161.38V158.88H138.1V161.38C138.1 165.61 141.56 169.08 145.8 169.08C150.04 169.08 153.5 165.62 153.5 161.38V157.34C156.58 155.61 158.7 152.14 158.7 148.49V86.3199C158.7 77.8499 151.77 70.9199 143.3 70.9199M112.3 76.1199H127.7C130.59 76.1199 132.9 77.2699 132.9 78.6199C132.9 79.9699 130.59 81.1199 127.7 81.1199H112.3C109.41 81.1199 107.1 79.9699 107.1 78.6199C107.1 77.2699 109.41 76.1199 112.3 76.1199ZM91.51 148.49C88.62 148.49 86.31 146.18 86.31 143.29C86.31 140.4 88.62 138.09 91.51 138.09C94.4 138.09 96.71 140.4 96.71 143.29C96.71 146.18 94.4 148.49 91.51 148.49ZM148.49 148.49C145.6 148.49 143.29 146.18 143.29 143.29C143.29 140.4 145.6 138.09 148.49 138.09C151.38 138.09 153.69 140.4 153.69 143.29C153.5 146.18 151.19 148.49 148.49 148.49ZM150.44 127.7C150.44 130.59 148.34 132.9 145.72 132.9H94.1C91.48 132.9 89.38 130.59 89.38 127.7V91.5099C89.38 88.6199 91.48 86.3099 94.1 86.3099H145.72C148.34 86.3099 150.44 88.6199 150.44 91.5099V127.7Z" fill="#266EB5"/>
<defs>
<linearGradient id="paint0_linear_1409_2799" x1="120" y1="0" x2="120" y2="340" gradientUnits="userSpaceOnUse">
<stop offset="0.5" stop-color="#266EB5"/>
<stop offset="1" stop-color="#133F69"/>
</linearGradient>
</defs>
</svg>
