<svg width="240" height="341" viewBox="0 0 240 341" fill="none" xmlns="http://www.w3.org/2000/svg">
<path d="M240 120.48C240 231.07 120 340.48 120 340.48C120 340.48 0 231.07 0 120.48C0 54.2104 53.73 0.480469 120 0.480469C186.27 0.480469 240 54.2104 240 120.48Z" fill="url(#paint0_linear_1409_2806)"/>
<path d="M120 200.48C164.183 200.48 200 164.663 200 120.48C200 76.2977 164.183 40.4805 120 40.4805C75.8172 40.4805 40 76.2977 40 120.48C40 164.663 75.8172 200.48 120 200.48Z" fill="white"/>
<path d="M178.24 114.581C164.97 109.031 150.69 105.761 136.28 105.061C136.76 109.821 136.5 114.621 135.54 119.341C135.37 120.161 135.12 120.941 134.89 121.731C135.77 121.541 136.66 121.471 137.56 121.631C140.69 122.181 143.1 124.761 143.98 128.531C144.11 129.101 143.95 129.701 143.55 130.131C143.15 130.561 142.56 130.751 141.98 130.651L132.01 128.891C128.46 135.511 122.95 140.851 116.15 144.051C116.28 145.841 116.54 147.591 116.89 149.331C119.34 160.991 128.46 169.851 140.16 171.901C151.86 173.951 163.48 168.761 169.76 158.671C172.51 154.261 174.34 149.411 175.26 144.261L179.93 117.711C180.15 116.401 179.45 115.091 178.23 114.571L178.24 114.581ZM154.12 155.441L132.69 151.661C131.46 151.441 130.7 150.161 131.13 148.991C133.28 143.171 139.35 139.541 145.67 140.661C151.99 141.781 156.45 147.261 156.48 153.461C156.48 154.701 155.33 155.651 154.11 155.431L154.12 155.441ZM165.78 134.041C165.38 134.471 164.79 134.661 164.21 134.561L152.59 132.511C152.01 132.411 151.53 132.031 151.29 131.491C151.06 130.951 151.1 130.341 151.42 129.851C153.47 126.641 156.67 124.991 159.79 125.541C162.92 126.091 165.33 128.671 166.22 132.441C166.36 133.011 166.2 133.611 165.79 134.041H165.78Z" fill="#7959AD"/>
<path d="M129.11 117.99C130.17 112.9 130.25 107.72 129.35 102.6L124.66 76.0101C124.43 74.7101 123.33 73.7401 122.01 73.6701C103.55 72.7501 84.79 76.0601 67.76 83.2401C66.54 83.7601 65.84 85.0401 66.07 86.3501L70.76 112.94C71.66 118.06 73.51 122.9 76.25 127.32C82.52 137.42 94.13 142.62 105.84 140.56C117.55 138.5 126.69 129.64 129.12 118L129.11 117.99ZM81.8 103.21C81.22 103.31 80.64 103.12 80.24 102.7C79.84 102.28 79.67 101.68 79.8 101.11C80.63 97.3901 83.08 94.7401 86.19 94.1901C89.32 93.6401 92.46 95.2401 94.59 98.4801C94.91 98.9701 94.97 99.5901 94.73 100.13C94.5 100.67 94.01 101.06 93.43 101.16L81.81 103.21H81.8ZM103.1 125.07C96.78 126.19 90.71 122.56 88.56 116.74C88.13 115.57 88.89 114.29 90.11 114.07L111.54 110.29C112.77 110.07 113.92 111.02 113.91 112.26C113.88 118.46 109.42 123.95 103.1 125.06V125.07ZM116.95 96.2101C116.72 96.7501 116.23 97.1301 115.65 97.2401L104.03 99.2901C103.45 99.3901 102.87 99.2001 102.47 98.7801C102.07 98.3601 101.9 97.7601 102.03 97.1901C102.86 93.4701 105.3 90.8201 108.42 90.2701C111.55 89.7201 114.69 91.3201 116.82 94.5601C117.14 95.0501 117.2 95.6701 116.96 96.2101H116.95Z" fill="#7959AD"/>
<defs>
<linearGradient id="paint0_linear_1409_2806" x1="120" y1="0.480469" x2="120" y2="340.48" gradientUnits="userSpaceOnUse">
<stop offset="0.5" stop-color="#7959AD"/>
<stop offset="1" stop-color="#513B73"/>
</linearGradient>
</defs>
</svg>
