<svg width="240" height="341" viewBox="0 0 240 341" fill="none" xmlns="http://www.w3.org/2000/svg">
<path d="M240 120.48C240 231.07 120 340.48 120 340.48C120 340.48 0 231.07 0 120.48C0 54.2104 53.73 0.480469 120 0.480469C186.27 0.480469 240 54.2104 240 120.48Z" fill="url(#paint0_linear_1409_2807)"/>
<path d="M120 200.48C164.183 200.48 200 164.663 200 120.48C200 76.2977 164.183 40.4805 120 40.4805C75.8172 40.4805 40 76.2977 40 120.48C40 164.663 75.8172 200.48 120 200.48Z" fill="white"/>
<path d="M184.72 138.529C184.45 137.809 183.88 137.229 183.16 136.939C181.47 136.269 175.39 134.119 167.87 134.389C164.66 134.499 161.56 135.039 158.63 135.989C160.89 130.539 162.14 124.569 162.14 118.309C162.14 92.7894 141.45 72.1094 115.94 72.1094C90.43 72.1094 69.74 92.7994 69.74 118.309C69.74 143.819 90.43 164.509 115.94 164.509C123.29 164.509 130.24 162.789 136.41 159.729C152.06 154.069 163.91 153.549 172.49 158.129C173.13 158.479 173.91 158.549 174.6 158.329C175.3 158.109 175.89 157.619 176.23 156.969L184.59 140.749C184.95 140.059 184.99 139.249 184.72 138.529ZM133.95 96.6194C135.44 95.7594 137.12 95.3094 138.83 95.3094C142.32 95.3094 145.58 97.1894 147.32 100.209C148.62 102.469 148.97 105.109 148.29 107.639C147.61 110.169 145.99 112.279 143.73 113.579C142.24 114.439 140.55 114.889 138.85 114.889C135.36 114.889 132.1 113.009 130.36 109.989C127.66 105.319 129.27 99.3194 133.95 96.6194ZM102.47 134.049C101.79 136.569 100.17 138.679 97.9 139.989C96.41 140.849 94.73 141.299 93.03 141.299C89.53 141.299 86.28 139.419 84.54 136.399C81.85 131.719 83.46 125.729 88.14 123.029C89.63 122.169 91.31 121.719 93.01 121.719C96.51 121.719 99.76 123.599 101.5 126.619C102.81 128.889 103.15 131.519 102.47 134.049ZM101.52 109.959C99.78 112.969 96.53 114.849 93.04 114.849C91.33 114.849 89.64 114.389 88.15 113.529C85.89 112.219 84.27 110.109 83.6 107.579C82.93 105.049 83.28 102.419 84.59 100.149C86.33 97.1394 89.58 95.2594 93.07 95.2594C94.78 95.2594 96.47 95.7194 97.96 96.5794C102.63 99.2794 104.23 105.279 101.53 109.949L101.52 109.959ZM115.92 154.539C113.31 154.539 110.85 153.519 109 151.669C107.15 149.819 106.14 147.359 106.14 144.749C106.14 139.359 110.53 134.969 115.93 134.969C118.55 134.969 121.01 135.989 122.86 137.839C124.71 139.689 125.72 142.149 125.72 144.759C125.72 150.149 121.33 154.539 115.93 154.539H115.92ZM110.81 118.309C110.81 115.479 113.11 113.179 115.94 113.179C118.77 113.179 121.07 115.479 121.07 118.309C121.07 121.139 118.77 123.439 115.94 123.439C113.11 123.439 110.81 121.139 110.81 118.309ZM115.93 101.649C110.53 101.649 106.14 97.2594 106.14 91.8594C106.14 86.4594 110.53 82.0694 115.93 82.0694C121.33 82.0694 125.72 86.4594 125.72 91.8594C125.72 97.2594 121.33 101.649 115.93 101.649ZM133.93 140.019C129.26 137.319 127.65 131.319 130.35 126.649C132.09 123.629 135.35 121.759 138.84 121.759C140.55 121.759 142.24 122.209 143.73 123.079C148.4 125.779 150.01 131.779 147.31 136.449C145.57 139.469 142.31 141.339 138.82 141.339C137.11 141.339 135.42 140.889 133.93 140.019ZM157.48 149.689C155.22 149.759 152.87 149.979 150.44 150.369C149.95 150.449 149.46 150.529 148.97 150.619C147.53 150.879 146.05 151.199 144.54 151.579C145.64 150.859 146.75 150.139 147.84 149.439L148.14 149.249L148.38 148.989C150.33 146.849 152.37 145.169 154.45 143.869C156.9 142.329 159.4 141.309 161.84 140.669L157.5 149.689H157.48ZM172.6 152.219C169.78 151.039 166.69 150.259 163.36 149.899L168.25 139.749C172.35 139.629 175.93 140.339 178.37 141.029L172.6 152.219Z" fill="#7959AD"/>
<defs>
<linearGradient id="paint0_linear_1409_2807" x1="120" y1="0.480469" x2="120" y2="340.48" gradientUnits="userSpaceOnUse">
<stop offset="0.5" stop-color="#7959AD"/>
<stop offset="1" stop-color="#513B73"/>
</linearGradient>
</defs>
</svg>
