<svg width="240" height="340" viewBox="0 0 240 340" fill="none" xmlns="http://www.w3.org/2000/svg">
<path d="M240 120C240 230.59 120 340 120 340C120 340 0 230.59 0 120C0 53.73 53.73 0 120 0C186.27 0 240 53.73 240 120Z" fill="url(#paint0_linear_1409_2801)"/>
<path d="M120 200C164.183 200 200 164.183 200 120C200 75.8172 164.183 40 120 40C75.8172 40 40 75.8172 40 120C40 164.183 75.8172 200 120 200Z" fill="white"/>
<path d="M165.75 109.249C162.9 110.409 160.04 111.569 157.19 112.729C148.99 116.069 140.79 119.419 132.59 122.749C129.06 124.179 125.5 125.559 121.97 126.999C120.67 127.529 119.47 127.509 118.16 126.979C110.08 123.669 101.98 120.409 93.89 117.129C86.19 114.009 78.49 110.899 70.8 107.759C67.94 106.589 65.12 105.339 62.27 104.149C60.32 103.339 60.3 99.6894 62.33 98.8594C65.38 97.6094 68.41 96.2794 71.46 95.0294C78.41 92.1894 85.36 89.3794 92.32 86.5694C100.02 83.4594 107.73 80.3594 115.43 77.2594C116.53 76.8194 117.61 76.2594 118.76 76.0294C119.7 75.8394 120.83 75.7994 121.69 76.1394C127.1 78.2394 132.47 80.4494 137.85 82.6394C146.06 85.9694 154.26 89.3194 162.47 92.6494C167.1 94.5294 171.77 96.3294 176.35 98.3194C177.38 98.7694 178.35 99.7394 178.94 100.709C179.74 102.019 178.7 103.759 176.79 104.689C174.89 105.619 172.91 106.409 170.92 107.139C170.22 107.399 170.02 107.689 170.02 108.389C170.04 117.429 170.02 126.459 170.05 135.499C170.05 135.869 170.18 136.439 170.44 136.579C172.7 137.799 173.39 139.929 173.53 142.189C173.63 143.739 173.16 145.329 172.97 146.899C172.91 147.379 172.86 147.899 172.99 148.349C174.08 152.249 175.19 156.139 176.33 160.029C176.65 161.109 176.76 162.119 175.72 162.889C174.67 163.659 173.77 163.179 172.8 162.609C169.4 160.609 166 160.859 162.67 162.809C161.79 163.329 160.95 163.559 160.07 162.919C159.13 162.239 159.16 161.309 159.39 160.299C160.28 156.439 161.17 152.569 161.98 148.689C162.12 148.009 162 147.209 161.78 146.529C160.87 143.719 161.03 140.979 162.59 138.499C163.2 137.529 164.4 136.919 165.29 136.109C165.56 135.869 165.89 135.499 165.9 135.189C165.93 126.659 165.92 118.129 165.9 109.599C165.9 109.519 165.84 109.449 165.75 109.239V109.249Z" fill="#CAD844"/>
<path d="M156.23 120.289V121.819C156.23 127.559 156.14 133.299 156.27 139.039C156.34 142.049 154.96 144.099 152.6 145.619C145.89 149.929 138.54 152.669 130.69 154.089C120.8 155.869 111.07 155.259 101.5 152.149C96.68 150.589 92.1 148.529 87.83 145.799C85.21 144.119 83.8 141.989 83.91 138.729C84.09 133.119 83.96 127.499 83.96 121.889V120.329C84.7 120.559 85.34 120.709 85.94 120.959C90.49 122.819 95.03 124.709 99.58 126.549C105.35 128.889 111.15 131.139 116.89 133.529C119.81 134.739 122.45 133.939 125.13 132.849C132.3 129.909 139.48 126.969 146.66 124.029C149.33 122.939 151.99 121.859 154.67 120.779C155.13 120.599 155.62 120.479 156.24 120.289H156.23Z" fill="#CAD844"/>
<defs>
<linearGradient id="paint0_linear_1409_2801" x1="120" y1="0" x2="120" y2="340" gradientUnits="userSpaceOnUse">
<stop offset="0.5" stop-color="#CAD844"/>
<stop offset="1" stop-color="#80892A"/>
</linearGradient>
</defs>
</svg>
