<svg width="240" height="340" viewBox="0 0 240 340" fill="none" xmlns="http://www.w3.org/2000/svg">
<path d="M240 120C240 230.59 120 340 120 340C120 340 0 230.59 0 120C0 53.73 53.73 0 120 0C186.27 0 240 53.73 240 120Z" fill="url(#paint0_linear_1409_2803)"/>
<path d="M120 200C164.183 200 200 164.183 200 120C200 75.8172 164.183 40 120 40C75.8172 40 40 75.8172 40 120C40 164.183 75.8172 200 120 200Z" fill="white"/>
<path d="M113.83 94.1401C111.72 92.7601 108.88 93.3501 107.5 95.4701L102.81 102.65L99.1201 96.9501C98.6301 95.3801 97.6201 93.9701 96.1801 92.9701C93.3001 90.9801 89.5801 91.2601 87.0401 93.3201L75.7 99.7201C74.39 100.12 73.27 101.09 72.74 102.48L67.33 116.71C66.43 119.07 67.62 121.71 69.98 122.61C70.84 122.94 71.74 122.99 72.58 122.8C74.04 122.48 75.3101 121.46 75.8801 119.96L79.6501 110.05C78.9801 112.72 78.4601 115.43 78.1201 118.17C78 119.14 77.9 120.11 77.82 121.08C77.77 121.73 77.8001 122.37 77.9001 122.98L72.49 132.32L57.8901 130.05C55.2401 129.64 52.75 131.45 52.34 134.11C51.93 136.76 53.7401 139.25 56.4001 139.66L74.2501 142.44C75.1301 142.58 75.9801 142.47 76.7601 142.17C77.8501 141.74 78.77 140.93 79.32 139.87C79.44 139.71 79.5501 139.54 79.6601 139.36L85.0201 130.11L91.3701 138.94C91.4701 139.08 91.58 139.22 91.69 139.34L91.72 155.85C91.72 158.1 93.25 159.98 95.32 160.54C95.73 160.65 96.15 160.71 96.59 160.71C99.28 160.71 101.45 158.52 101.44 155.84L101.41 137.77C101.41 136.32 100.77 135.01 99.7501 134.12C99.6201 133.82 99.4501 133.53 99.2501 133.25L92.6401 124.07C92.8301 123.5 92.9501 122.91 93.0001 122.29C93.3801 117.68 94.3601 113.19 95.9301 108.85L98.74 113.2C99.29 114.04 100.06 114.65 100.94 114.98C101.59 115.23 102.3 115.33 103 115.27C104.49 115.27 105.95 114.54 106.82 113.2L115.15 100.45C116.53 98.3401 115.94 95.5001 113.82 94.1201L113.83 94.1401Z" fill="#40B5B1"/>
<path d="M182.05 88.9902C179.75 87.4902 176.66 88.1302 175.16 90.4302L168.95 99.9302L159.57 93.1002C159.38 92.9602 159.19 92.8402 158.99 92.7302C158.45 91.9902 157.78 91.3202 156.99 90.7802C154.99 89.4002 152.63 89.0202 150.46 89.5102C150.32 89.5102 150.19 89.5102 150.05 89.5102L133.49 90.3102C131.7 90.4002 130.18 91.4102 129.37 92.8702L120.31 106.74C118.81 109.04 119.45 112.13 121.75 113.63C122.59 114.18 123.53 114.44 124.47 114.44C126.09 114.44 127.69 113.65 128.64 112.18L136.52 100.12L142.11 99.8502C141.83 100.54 141.56 101.24 141.3 101.95C139.37 107.17 138.03 112.64 137.33 118.21C137.26 118.74 137.2 119.28 137.15 119.82L131.35 129.83L118.33 122.28C115.69 120.75 112.3 121.65 110.77 124.29C109.24 126.93 110.14 130.32 112.78 131.85L130.56 142.16C131.43 142.67 132.39 142.91 133.33 142.91C135.24 142.91 137.1 141.92 138.12 140.15C138.14 140.12 138.16 140.09 138.17 140.06C138.28 139.91 138.38 139.75 138.48 139.58L142.47 132.69L149.1 141.9L154.36 161.35C155.03 163.82 157.26 165.44 159.7 165.44C160.18 165.44 160.66 165.38 161.15 165.25C164.1 164.45 165.84 161.42 165.05 158.47L159.69 138.63C159.57 138.19 159.4 137.78 159.19 137.4C159.02 136.88 158.76 136.38 158.43 135.91L151.98 126.94C152.85 125.74 153.42 124.3 153.55 122.72C153.98 117.57 155.09 112.55 156.87 107.72C157.28 106.61 157.73 105.51 158.21 104.42L167.11 110.91C167.2 110.98 167.3 111.04 167.39 111.1C167.44 111.13 167.49 111.17 167.54 111.2C168.38 111.75 169.32 112.01 170.26 112.01C171.88 112.01 173.48 111.22 174.43 109.75L183.5 95.8702C185 93.5702 184.36 90.4802 182.06 88.9802L182.05 88.9902Z" fill="#40B5B1"/>
<path d="M158.5 89.3096C163.874 89.3096 168.23 84.9533 168.23 79.5796C168.23 74.2059 163.874 69.8496 158.5 69.8496C153.126 69.8496 148.77 74.2059 148.77 79.5796C148.77 84.9533 153.126 89.3096 158.5 89.3096Z" fill="#40B5B1"/>
<path d="M80.65 85.3287C81.28 85.0687 82.29 84.5787 83.23 83.6487C84.8 82.1087 84.76 80.7787 86.59 78.0987C87.64 76.5487 88.45 75.3987 89.5 75.4487C90.18 75.4887 90.72 76.0187 91.09 76.5187C89.57 78.1187 88.63 80.2887 88.63 82.6787C88.63 87.6187 92.6299 91.6187 97.5699 91.6187C102.51 91.6187 106.51 87.6187 106.51 82.6787C106.51 77.7387 102.51 73.7387 97.5699 73.7387C95.9099 73.7387 94.35 74.1887 93.02 74.9787C92.83 74.3787 92.52 73.7087 92.02 73.0587C90.73 71.3987 88.27 70.0287 85.76 70.7387C83.1 71.4787 81.6001 74.1887 81.5601 76.2887C81.5201 78.3587 82.91 79.0687 82.79 81.1987C82.69 82.9787 81.61 84.3787 80.66 85.3287H80.65Z" fill="#40B5B1"/>
<defs>
<linearGradient id="paint0_linear_1409_2803" x1="120" y1="0" x2="120" y2="340" gradientUnits="userSpaceOnUse">
<stop offset="0.5" stop-color="#40B5B1"/>
<stop offset="1" stop-color="#2E8481"/>
</linearGradient>
</defs>
</svg>
