<svg width="240" height="340" viewBox="0 0 240 340" fill="none" xmlns="http://www.w3.org/2000/svg">
<path d="M240 120C240 230.59 120 340 120 340C120 340 0 230.59 0 120C0 53.73 53.73 0 120 0C186.27 0 240 53.73 240 120Z" fill="url(#paint0_linear_1409_2804)"/>
<path d="M120 200C164.183 200 200 164.183 200 120C200 75.8172 164.183 40 120 40C75.8172 40 40 75.8172 40 120C40 164.183 75.8172 200 120 200Z" fill="white"/>
<path d="M154.41 114.61C154.88 114.13 155.56 113.44 156.37 112.59C161.45 107.39 166.48 102.13 171.53 96.8999C172.74 95.6499 173.92 94.3699 175.12 93.1099C176.41 91.7599 176.57 90.2599 175.54 89.2599C175.17 88.9099 174.77 88.6999 174.33 88.6399C173.49 88.3999 172.58 88.6699 171.75 89.4599C169.25 91.8299 153.35 107.1 153.35 107.1C152.74 107.69 151.78 107.71 151.15 107.16C150.6 106.53 150.62 105.57 151.21 104.96C151.21 104.96 167.01 88.5599 168.92 86.5599C169.66 85.7799 170.17 84.8799 169.67 83.9099C169.51 83.5999 169.26 83.2599 168.98 82.9799C168.7 82.6999 168.36 82.4499 168.05 82.2899C167.08 81.7899 166.18 82.2899 165.4 83.0399C163.4 84.9499 147 100.75 147 100.75C146.39 101.34 145.43 101.36 144.8 100.81C144.25 100.18 144.27 99.2199 144.86 98.6099C144.86 98.6099 160.14 82.6999 162.5 80.2099C163.28 79.3799 163.55 78.4699 163.32 77.6299C163.25 77.1899 163.05 76.7899 162.7 76.4199C161.7 75.3799 160.21 75.5499 158.85 76.8399C157.59 78.0399 156.31 79.2199 155.06 80.4299C149.83 85.4799 144.57 90.5099 139.37 95.5899C138.52 96.3999 137.83 97.0799 137.35 97.5499C137.24 97.6599 137.14 97.7699 137.03 97.8799C136.89 98.0099 136.76 98.1499 136.62 98.2799C134.07 100.79 132.79 103.92 132.94 107.56C132.96 107.98 132.97 108.41 132.99 108.83C132.99 109.38 132.98 109.92 133.02 110.46C133.02 111.04 133 111.62 132.97 112.2C132.93 112.81 132.62 113.56 132.17 113.96C127.81 117.83 123.41 121.64 119.01 125.46C112.48 131.13 105.94 136.78 99.4101 142.45C94.5101 146.7 89.6 150.93 84.75 155.24C81.53 158.09 81.1601 162.91 83.7901 166.17C84.1001 166.55 84.42 166.9 84.75 167.23C85.07 167.56 85.4301 167.88 85.8101 168.19C89.0701 170.81 93.89 170.44 96.74 167.23C101.04 162.38 105.28 157.47 109.53 152.57C115.2 146.04 120.85 139.5 126.52 132.97C130.34 128.57 134.15 124.16 138.02 119.81C138.42 119.36 139.17 119.05 139.78 119.01C140.36 118.97 140.94 118.96 141.52 118.96C142.06 119 142.61 118.99 143.15 118.99C143.57 119 144 119.02 144.42 119.04C148.06 119.19 151.19 117.91 153.7 115.36C153.83 115.22 153.97 115.09 154.1 114.95C154.21 114.85 154.32 114.74 154.43 114.63L154.41 114.61Z" fill="#E59641"/>
<path d="M106.61 124.131C107.85 123.381 108.88 122.291 110.15 121.231C110.54 121.621 110.91 121.951 111.24 122.331C112.13 123.351 113.02 124.371 113.92 125.401C114.88 124.571 115.83 123.741 116.78 122.921L118 121.861C119.36 120.681 120.74 119.491 122.12 118.281C121.03 117.331 119.94 116.381 118.85 115.421C109.88 107.581 100.93 99.7306 92 91.8506C86.39 86.9006 80.85 81.8706 75.26 76.8906C73.47 75.2906 71.6699 75.4306 70.0699 77.2306C66.9799 80.6806 66.68 85.8206 69.38 89.4806C77.18 100.091 84.99 110.701 92.8 121.311C96.11 125.801 101.86 127.021 106.61 124.141V124.131Z" fill="#E88F36"/>
<path d="M162.05 152.99C155.76 147.58 149.52 142.11 143.26 136.67C140.32 134.11 137.37 131.55 134.43 128.99C132.97 130.66 131.53 132.33 130.11 133.97L129.06 135.19C127.97 136.45 126.87 137.72 125.77 138.99C133.69 148.1 141.61 157.22 149.55 166.32C150.24 167.11 151.09 167.84 152 168.35C156.06 170.64 161.21 169.25 163.94 165.2C166.61 161.25 165.79 156.21 162.06 153L162.05 152.99Z" fill="#E88F36"/>
<defs>
<linearGradient id="paint0_linear_1409_2804" x1="120" y1="0" x2="120" y2="340" gradientUnits="userSpaceOnUse">
<stop offset="0.5" stop-color="#E88F36"/>
<stop offset="1" stop-color="#A66627"/>
</linearGradient>
</defs>
</svg>
